Coordinates
version=1
nRows=8
nColumns=36
inDegrees=yes

Units are S.I. units (second, meters, Newtons, ...)
If the header above contains a line with 'inDegrees', this indicates whether rotational values are in degrees (yes) or radians (no).

endheader
time	pelvis_tilt	pelvis_list	pelvis_rotation	pelvis_tx	pelvis_ty	pelvis_tz	hip_flexion_r	hip_adduction_r	hip_rotation_r	knee_angle_r	knee_angle_r_beta	ankle_angle_r	subtalar_angle_r	mtp_angle_r	hip_flexion_l	hip_adduction_l	hip_rotation_l	knee_angle_l	knee_angle_l_beta	ankle_angle_l	subtalar_angle_l	mtp_angle_l	lumbar_extension	lumbar_bending	lumbar_rotation	arm_flex_r	arm_add_r	arm_rot_r	elbow_flex_r	pro_sup_r	arm_flex_l	arm_add_l	arm_rot_l	elbow_flex_l	pro_sup_l
      0.98333330	     -2.72670565	      2.28497711	     -0.49988649	      0.01670693	      1.00848393	     -0.02773770	     25.81363489	     -3.81893212	     -6.96224423	      8.83289211	      0.15416305	    -34.65578480	    -15.89371494	     -7.49999987	     29.81417287	     -7.18948463	     -0.02238709	     20.60317787	      0.35959329	    -24.09229119	     -7.11789321	     -7.49999987	    -12.72714687	     -3.57843723	     -5.44933359	    -41.77441831	    -21.39164822	      0.92919500	     77.00433906	     79.75575247	    -53.60538650	    -21.99628293	     -5.54707948	    130.81299195	    104.16259663
      0.98750000	     -2.95822291	      2.08153513	     -0.58519801	      0.01768287	      1.00157085	     -0.02822123	     26.94446637	     -3.63339058	     -6.49276029	      9.96738849	      0.17396375	    -35.71423142	    -16.25018310	     -7.49999987	     31.08641283	     -7.36376164	      0.18284732	     21.22027320	      0.37036364	    -25.25239210	     -7.27894985	     -7.49999987	    -13.35752818	     -2.99470992	     -5.33440987	    -40.84128169	    -21.24506696	      0.52218064	     76.94717226	     78.82366793	    -51.91621971	    -21.32769174	     -6.45062333	    129.27602530	    102.18425668
      0.99166670	     -2.70006102	      2.07154586	     -0.21297529	      0.02333404	      0.99275146	     -0.03353746	     27.99555626	     -4.05956303	     -5.22495697	     12.33268617	      0.21524598	    -37.18531436	    -16.65230026	     -7.49999987	     31.50970575	     -6.88787981	      0.54176623	     22.02879465	      0.38447500	    -25.95757894	     -7.08194999	     -7.49999987	    -14.25279167	     -2.60199679	     -5.57686982	    -39.98234497	    -21.19322988	      0.01627862	     76.45141333	     78.49504829	    -50.43198828	    -20.61092269	     -6.97126263	    127.94375132	    101.07170808
      0.99583330	     -2.67253185	      2.21415205	      0.08510259	      0.02336903	      0.97585014	     -0.03363844	     30.11891487	     -4.45520461	     -3.44675136	     15.96435172	      0.27863050	    -38.14600479	    -17.90703064	     -7.49999987	     32.74789030	     -6.55344695	      0.73939383	     23.94613301	      0.41793886	    -25.86680307	     -6.82969339	     -7.49999987	    -15.32033977	     -2.35569419	     -6.34353845	    -38.37044386	    -21.27202974	      0.00568468	     75.81512019	     81.10763874	    -48.98942243	    -19.74479041	     -7.23480860	    126.65503195	    105.44620135
      1.00000000	     -2.75195729	      2.13076449	      0.35823231	      0.02379261	      0.95848389	     -0.03353661	     32.57279394	     -4.66806786	     -2.56650571	     20.05699489	      0.35006060	    -37.29451087	    -19.03239929	     -7.49999987	     35.00381076	     -6.47098139	      0.53986236	     27.49159388	      0.47981883	    -25.43082026	     -7.64458638	     -7.49999987	    -16.22150642	     -2.17754667	     -6.99934475	    -37.19251505	    -21.41779016	      0.06741297	     75.98648944	     81.18103616	    -48.38417352	    -19.32680902	     -7.99758799	    126.89682836	    105.46465778
      1.00416670	     -2.25056943	      1.60939363	      0.11162896	      0.02933837	      0.95189073	     -0.02985688	     33.85941269	     -3.86002544	     -2.08107357	     23.29937925	      0.40665088	    -35.77435000	    -20.17213624	     -7.49999987	     36.58292934	     -7.31845622	      0.63671319	     31.12516296	      0.54323657	    -24.87694251	     -8.35599358	     -7.49999987	    -17.43388897	     -1.85047352	     -6.59695345	    -35.94180413	    -21.06651606	     -0.15504014	     75.14457324	     81.02300237	    -47.33983793	    -18.35976771	     -7.85074632	    126.49179738	    104.89812249
      1.00833330	     -1.40025557	      1.14520882	     -0.23715630	      0.03499178	      0.94410956	     -0.02557204	     33.73450215	     -2.90900265	     -2.06996982	     25.28219990	      0.44125763	    -33.25926903	    -20.63492543	     -7.49999987	     37.17997828	     -8.22356879	      1.44172782	     33.04344604	      0.57671693	    -24.40820367	     -5.86463063	     -7.49999987	    -18.81233292	     -1.78976640	     -6.68223737	    -33.31368661	    -20.21187259	      0.31610673	     72.65902826	     79.74504762	    -45.99222054	    -17.18204985	     -8.40435228	    126.23369880	    103.65574852
      1.01250000	     -0.47798834	      0.69670820	     -0.06963090	      0.04410383	      0.94057514	     -0.02687529	     32.68506634	     -2.38560642	     -2.00719159	     26.18680003	      0.45704588	    -31.02406811	    -21.31478178	     -7.49999987	     36.55477639	     -8.62422440	      1.56563243	     33.56854358	      0.58588161	    -24.64181493	     -3.96212871	     -7.49999987	    -19.97614459	     -1.30733223	     -6.79421923	    -31.53156949	    -19.06181881	      0.37524514	     71.56873824	     79.44745750	    -43.86771233	    -17.70148249	     -8.35989884	    125.41888222	    102.95680491
